<?xml version="1.0" encoding="iso-8859-1"?>
<!-- Generator: Adobe Illustrator 21.0.2, SVG Export Plug-In . SVG Version: 6.00 Build 0)  -->
<svg version="1.1" xmlns="http://www.w3.org/2000/svg" xmlns:xlink="http://www.w3.org/1999/xlink" x="0px" y="0px"
	 viewBox="0 0 64 64" style="enable-background:new 0 0 64 64;" xml:space="preserve">
<g id="spinning_top">
</g>
<g id="boat">
</g>
<g id="rocking_horse">
</g>
<g id="truck">
</g>
<g id="shirt">
</g>
<g id="gameboy">
</g>
<g id="castle">
</g>
<g id="train">
</g>
<g id="baby_mobile">
</g>
<g id="car">
</g>
<g id="duck">
</g>
<g id="balloon">
</g>
<g id="piano">
</g>
<g id="robot">
</g>
<g id="puzzle">
</g>
<g id="roller_skate">
</g>
<g id="house">
</g>
<g id="fidget_spinner">
</g>
<g id="rattel">
</g>
<g id="rc_car">
</g>
<g id="ball">
	<path d="M61.6165,22.8391c-0.0037-0.0154-0.0083-0.0297-0.0128-0.0449C57.6736,10.1818,45.8887,1,32,1
		C14.9072,1,1.001,14.9067,1.001,32S14.9072,63,32,63c13.8885,0,25.6732-9.1815,29.6035-21.7935
		C62.4902,38.2043,62.999,35.1361,62.999,32C62.999,28.8122,62.5143,25.7357,61.6165,22.8391z M55.0518,14.4325
		c1.4923,1.9536,2.7443,4.0992,3.7068,6.3964l-3.7068-2.1403V14.4325z M53.0518,12.0865v6.602l-10.0244,5.79L33,18.6885V7.1099
		l5.7353-3.3118C44.2993,5.127,49.243,8.062,53.0518,12.0865z M3.001,32c0-2.8796,0.445-5.6523,1.2311-8.2794l5.7122-3.2997
		l5.0142,2.8947l5.0142,2.8948v11.5786l-10.0283,5.79l-5.7123-3.2997C3.446,37.6523,3.001,34.8796,3.001,32z M21.9727,26.2103
		L32,20.421l10.0273,5.7893v11.5789L32,43.5795l-10.0273-5.7903V26.2103z M32,3c1.2528,0,2.4846,0.0888,3.6959,0.2437l-3.696,2.1337
		l-3.697-2.1335C29.5146,3.0889,30.7468,3,32,3z M10.9443,12.0906c3.8087-4.0261,8.7531-6.9622,14.3179-8.2919L31,7.1099v11.5786
		l-10.0273,5.79l-10.0283-5.79V12.0906z M8.9443,18.6892l-3.6804,2.1262c0.9613-2.2866,2.1944-4.4318,3.6804-6.378V18.6892z
		 M5.2639,43.1846l3.6804,2.1262v4.2518C7.4583,47.6164,6.2252,45.4712,5.2639,43.1846z M10.9443,51.9094V45.311l5.0142-2.8948
		l5.0142-2.8947L31,45.311v11.5762l-5.738,3.3141C19.6973,58.8716,14.753,55.9354,10.9443,51.9094z M32,61
		c-1.2539,0-2.4867-0.089-3.6991-0.2441l3.699-2.1369l3.6843,2.1292C34.4758,60.9023,33.2498,61,32,61z M53.0518,51.921
		c-3.8073,4.0225-8.7528,6.9532-14.3139,8.2822L33,56.8872V45.311l10.0272-5.7895l5.0124,2.8947l5.0122,2.8948V51.921z
		 M55.0518,49.5417v-4.2308l3.7069-2.1402C57.7988,45.4616,56.5384,47.5923,55.0518,49.5417z M59.7925,40.2651l-5.7407,3.314
		l-5.0122-2.8948l-5.0122-2.895V26.2104l2.1293-1.2299l7.8957-4.5599l5.7402,3.3143c0.7808,2.621,1.2065,5.3937,1.2065,8.265
		C60.999,34.8714,60.5734,37.644,59.7925,40.2651z"/>
</g>
<g id="candy">
</g>
<g id="doll">
</g>
<g id="plane">
</g>
<g id="bloks">
</g>
</svg>
